<?xml version="1.0" encoding="UTF-8" standalone="no"?>
<svg
   id="be52d4a0-d7df-45d7-a4d1-9b9d295e8f0e"
   data-name="Layer 1"
   width="456.211"
   height="661.16309"
   viewBox="0 0 456.21102 661.1631"
   version="1.1"
   sodipodi:docname="woman.svg"
   inkscape:version="1.1 (c68e22c387, 2021-05-23)"
   xmlns:inkscape="http://www.inkscape.org/namespaces/inkscape"
   xmlns:sodipodi="http://sodipodi.sourceforge.net/DTD/sodipodi-0.dtd"
   xmlns="http://www.w3.org/2000/svg"
   xmlns:svg="http://www.w3.org/2000/svg"
   xmlns:rdf="http://www.w3.org/1999/02/22-rdf-syntax-ns#"
   xmlns:cc="http://creativecommons.org/ns#"
   xmlns:dc="http://purl.org/dc/elements/1.1/">
  <defs
     id="defs85" />
  <sodipodi:namedview
     id="namedview83"
     pagecolor="#ffffff"
     bordercolor="#666666"
     borderopacity="1.0"
     inkscape:pageshadow="2"
     inkscape:pageopacity="0.0"
     inkscape:pagecheckerboard="0"
     showgrid="false"
     width="456.211px"
     inkscape:zoom="0.61406937"
     inkscape:cx="223.10183"
     inkscape:cy="279.28441"
     inkscape:window-width="1600"
     inkscape:window-height="821"
     inkscape:window-x="-9"
     inkscape:window-y="435"
     inkscape:window-maximized="1"
     inkscape:current-layer="be52d4a0-d7df-45d7-a4d1-9b9d295e8f0e" />
  <title
     id="title2">analyze</title>
  <ellipse
     cx="222.28758"
     cy="356.63721"
     fill="#ffffff"
     id="circle146-1"
     rx="391.13562"
     ry="459.53183"
     style="stroke-width:70.6595;fill:#d7e3f4" />
  <ellipse
     cx="261.3963"
     cy="625.90613"
     rx="191"
     ry="16"
     fill="#3f3d56"
     id="ellipse4" />
  <path
     d="m 253.8963,567.40614 c 0,0 -3,19 -8,22 -5,3 26,10 26,10 l 5,-30 z"
     fill="#fbbebe"
     id="path46" />
  <path
     d="m 290.8963,350.40614 11,13 -5,45 -4,89 c 0,0 8,77 0,79 -8,2 -44,1 -43,-4 1,-5 2,-9 4,-16 2,-7 -2,-32 -2,-32 l 5,-28 -18,-121 z"
     fill="#2f2e41"
     id="path48" />
  <path
     d="m 254.8963,586.40614 c 0,0 -11,-2 -12,0 -1,2 -20,23 -23,23 -3,0 -25,20 -2,21 23,1 61,-17 61,-17 0,0 -5.59226,-25.44648 -5.29613,-24.22324 0.29613,1.22324 -18.70387,2.22324 -18.70387,-2.77676 z"
     fill="#2f2e41"
     id="path50" />
  <path
     d="m 242.8963,540.40614 c 0,0 28,31 29,34 1,3 16,0 16,0 l 6,-20 -5,-7 -28,-23 z"
     fill="#fbbebe"
     id="path52" />
  <path
     d="m 282.8963,563.40614 -14.5,13.64811 c 0,0 18.5,28.35189 18.5,31.35189 0,3 1,28 11,24 10,-4 11,-44 11,-44 0,0 -1,-41 -7,-44 -6,-3 -19.15048,-2.05218 -19.15048,-2.05218 0,0 8.15048,20.05218 0.15048,21.05218 z"
     fill="#2f2e41"
     id="path54" />
  <path
     d="m 199.8963,261.40614 c 0,0 -5,16 -6,20 -1,4 -7,15 -7,32 0,17 2,37 0,39 -2,2 -34,114 -20,126 14,12 60,52 63,57 3,5 4,17 10,15 6,-2 29,-22 30,-26 1,-4 -13,-11 -13,-11 0,0 -28,-41 -35,-40 -7,1 -6,-5 -5,-8 1,-3 3,-5 0,-5 -3,0 -1,-8 0,-12 1,-4 24,-58 24,-58 l 61,-27 c 0,0 -3,-73 -25,-93 l -5,-12 c 0,0 -56,-4 -72,3 z"
     fill="#2f2e41"
     id="path56" />
  <path
     d="m 224.8963,103.40614 c 0,0 5,35 -7,37 -12,2 -22,1 -22,2 0,1 30,32 30,32 l 28,-2 25,-27 c 0,0 -23,-4 -23,-18 0,-14 -1,-24 -1,-24 z"
     fill="#fbbebe"
     id="path58" />
  <path
     d="m 224.8963,103.40614 c 0,0 5,35 -7,37 -12,2 -22,1 -22,2 0,1 30,32 30,32 l 28,-2 25,-27 c 0,0 -23,-4 -23,-18 0,-14 -1,-24 -1,-24 z"
     opacity="0.1"
     id="path60" />
  <circle
     cx="240.39629"
     cy="86.906143"
     r="31"
     fill="#fbbebe"
     id="circle62" />
  <path
     d="m 212.8963,137.40614 c 0,0 -39,5 -42,18 -3,13 20,94 23,101 3,7 2,12 2,12 a 39.56624,39.56624 0 0 1 32,-7 c 19,4 46,2 46,2 0,0 9,-37 11,-41 2,-4 10,-26 10,-32 0,-6 12,-31 12,-31 0,0 -6,-18 -28,-17 0,0 -9.59619,-4.29506 -12.2981,-1.14753 -2.70191,3.14753 -17.7019,17.14753 -36.7019,11.14753 -19,-6 -17,-15 -17,-15 z"
     fill="#3f3d56"
     id="path64" />
  <path
     d="m 181.8963,154.40614 h -11 l -6,79 c 0,0 22,6 25,2 3,-4 -8,-81 -8,-81 z"
     fill="#3f3d56"
     id="path66" />
  <path
     d="m 167.8963,225.40614 -3,8 c 0,0 -2,26 10,25 12,-1 19,-16 19,-16 0,0 -7,-19 -15,-17 -8,2 -11,0 -11,0 z"
     fill="#3f3d56"
     id="path68" />
  <path
     d="m 287.8963,154.40614 19,5 c 0,0 14,51 15,52 1,1 2,7 2,7 0,0 0,1 2,4 2,3 5,1 3,5 -2,4 -5,2 -3,6 2,4 1,15 1,15 0,0 -5,-19 -23,-14 l -12,-54 z"
     fill="#3f3d56"
     id="path70" />
  <path
     d="m 205.08611,61.363739 c -6.30387,11.07583 -7.72367,24.194851 -8.5935,36.909261 -0.373,5.45291 -0.65355,11.0496 0.96379,16.27049 1.70539,5.50511 5.4998,11.09855 3.554,16.52334 -1.882,5.24677 -8.17575,7.34634 -11.69047,11.67267 -2.97854,3.66635 -3.72668,8.68974 -3.46821,13.40641 0.25847,4.71667 1.40212,9.34719 1.73759,14.059 a 41.64844,41.64844 0 0 1 -8.95862,28.70467 c 15.062,-0.58079 31.16569,-7.25987 37.51746,-20.92941 1.89885,-4.08648 2.82264,-8.55867 4.5362,-12.72624 1.93849,-4.71462 4.86362,-8.98191 6.69952,-13.73742 2.77,-7.17506 2.91992,-15.05376 3.03495,-22.74409 0.0689,-4.60347 0.11784,-9.3298 -1.47524,-13.64938 -3.5069,-9.50884 -14.413,-15.65265 -15.49588,-25.72953 a 5.08932,5.08932 0 0 1 0.45026,-3.13278 8.31049,8.31049 0 0 1 1.82852,-1.84924 c 6.81007,-6.010571 5.68712,-18.735541 13.79358,-22.833001 3.6377,-1.8387 8.02262,-1.19186 11.92889,-0.02791 4.33767,1.2925 8.66546,3.29415 11.48753,6.83278 5.68287,7.1258 3.44023,17.419121 1.68177,26.362261 a 157.36686,157.36686 0 0 0 -2.68956,39.41209 25.50329,25.50329 0 0 0 0.92671,6.242 c 1.04417,3.30071 3.27011,6.07363 4.95045,9.10042 a 30.06314,30.06314 0 0 1 3.13677,20.4182 c -1.24046,6.0595 -4.32181,12.51267 -1.6093,18.07133 a 16.31963,16.31963 0 0 0 4.8657,5.41037 c 8.8623,6.946 20.11192,11.24975 26.70123,20.38039 1.13481,-7.458 -1.03,-14.96325 -2.62816,-22.33584 -1.59816,-7.37259 -2.57068,-15.39914 0.71364,-22.19049 1.44085,-2.97938 3.64313,-5.57162 4.821,-8.66442 2.72027,-7.1427 -0.52193,-14.97707 -2.49089,-22.36228 a 133.16267,133.16267 0 0 1 -3.04126,-17.6228 l -2.03071,-16.02185 C 284.5651,91.33762 282.80858,77.822739 276.99245,65.805029 266.03192,43.157569 241.22803,34.746399 219.01967,47.295649 a 37.55093,37.55093 0 0 0 -13.93356,14.06809 z"
     fill="#ff6584"
     id="path72" />
  <path
     d="m 177.8963,230.40614 c 0,0 -6,18 1,18 7,0 20,-11 21,-20 1,-9 19,-43 6,-40 -13,3 -19,28 -19,28 z"
     fill="#fbbebe"
     id="path74" />
  <polygon
     points="677.413,186.663 632.413,173.663 599.413,280.663 644.413,290.663 "
     fill="#1bb1dc"
     id="polygon76"
     transform="translate(-353.5171,-19.256961)" />
  <path
     d="m 320.8963,231.40614 6.24722,10.44031 c 0,0 2.75278,19.55969 -11.24722,19.55969 -14,0 -34,-19 -34,-19 0,0 -10,-4 -16,-3 -6,1 -39,0 -25,-17 14,-17 38,0 38,0 l 25,12 13,-7 z"
     fill="#fbbebe"
     id="path78" />
  <path
     d="m 312.3963,217.90614 -10,16 c 0,0 23,3 25,8 2,5 -9,-26 -9,-26 z"
     fill="#3f3d56"
     id="path80" />
  <metadata
     id="metadata1287">
    <rdf:RDF>
      <cc:Work
         rdf:about="">
        <dc:title>analyze</dc:title>
      </cc:Work>
    </rdf:RDF>
  </metadata>
  <path
     d="m 148.27549,315.06034 h -495.55958 a 8.0933093,13.79068 0 1 0 0,27.58136 h 14.31894 v 300.2125 a 8.0933093,13.79068 0 0 0 16.18661,0 V 369.14115 l 90.7336,280.22212 a 8.0933093,13.79068 0 0 0 14.01798,-13.79067 L -306.87529,342.6417 H 126.4858 v 0.17865 l -94.789954,292.7523 a 8.0930307,13.790205 0 1 0 14.01737,13.79069 L 126.4858,399.90445 V 642.8542 a 8.0933106,13.790682 0 0 0 16.18662,0 V 349.91335 l 2.35468,-7.27165 h 3.24839 a 8.0933093,13.79068 0 0 0 0,-27.58136 z"
     fill="#3f3d56"
     id="path182"
     style="stroke-width:1.62533" />
  <rect
     x="65.262924"
     y="307.44232"
     width="86"
     height="7"
     rx="3.5"
     fill="#cccccc"
     id="rect142" />
  <path
     d="M 109.12529,314.81385 H 20.125292 a 6.50736,6.50736 0 0 1 -6.5,-6.5 v -49 a 6.50737,6.50737 0 0 1 6.5,-6.5 h 88.999998 a 6.50737,6.50737 0 0 1 6.5,6.5 v 49 a 6.50736,6.50736 0 0 1 -6.5,6.5 z"
     fill="#cccccc"
     id="path144" />
  <circle
     cx="62.62529"
     cy="283.81384"
     r="6"
     fill="#ffffff"
     id="circle146" />
</svg>
